# xmcd
#
# Track frame offsets:
#	150
#	29859
#	56216
#	71232
#	81460
#	121826
#	149134
#	160535
#	210307
#	237764
#	271016
#
# Disc length: 4155 seconds
#
# Revision: 1
# Processed by: cddbd v1.5.1PL0 Copyright (c) Steve Scherf et al.
# Submitted via: EasyCDDAExtractor 5.0.6
#
DISCID=a310390b
DTITLE=Пангормонъ - О Жизни...
DYEAR=2005
DGENRE=Other
TTITLE0=Data
TTITLE1=Начальная
TTITLE2=Прохожие
TTITLE3=Крышка
TTITLE4=Пират
TTITLE5=Шпион
TTITLE6=На обоях
TTITLE7=О грустном
TTITLE8=Если с другом вышел в путь...
TTITLE9=Чайковский
TTITLE10=О Жизни...
EXTD=
EXTT0=
EXTT1=
EXTT2=
EXTT3=
EXTT4=
EXTT5=
EXTT6=
EXTT7=
EXTT8=
EXTT9=
EXTT10=
PLAYORDER=
